# AST/ASF file generated using VICON BodyLanguage
# -----------------------------------------------
:version 1.10
:name VICON
:units
  mass 1.0
  length 0.45
  angle deg
:documentation
   .ast/.asf automatically generated from VICON data using
   VICON BodyBuilder and BodyLanguage model FoxedUp or BRILLIANT.MOD
:root
   order TX TY TZ RX RY RZ
   axis XYZ
   position 0 0 0  
   orientation 0 0 0 
:bonedata
  begin
     id 1 
     name lhipjoint
     direction 0.589753 -0.68606 0.426044 
     length 2.54082 
     axis 0 0 0  XYZ
  end
  begin
     id 2 
     name lfemur
     direction 0.34202 -0.939693 0  
     length 7.04539  
     axis 0 0 20  XYZ
    dof rx ry rz
    limits (-160.0 20.0)
           (-70.0 70.0)
           (-60.0 70.0)
  end
  begin
     id 3 
     name ltibia
     direction 0.34202 -0.939693 0   
     length 7.83772   
     axis 0 0 20   XYZ
    dof rx
    limits (-10.0 170.0)
  end
  begin
     id 4 
     name lfoot
     direction 0.0596604 -0.163915 0.984669   
     length 2.39542   
     axis -90 7.62852e-016 20   XYZ
    dof rx rz
    limits (-45.0 90.0)
           (-70.0 20.0)
  end
  begin
     id 5 
     name ltoes
     direction 1.53514e-011 -4.21954e-011 1   
     length 1.2047   
     axis -90 7.62852e-016 20   XYZ
    dof rx
    limits (-90.0 20.0)
  end
  begin
     id 6 
     name rhipjoint
     direction -0.580585 -0.69168 0.429534   
     length 2.52018  
     axis 0 0 0  XYZ 
  end
  begin
     id 7 
     name rfemur
     direction -0.34202 -0.939693 0   
     length 7.0101   
     axis 0 0 -20   XYZ
    dof rx ry rz
    limits (-160.0 20.0)
           (-70.0 70.0)
           (-70.0 60.0)
  end
  begin
     id 8 
     name rtibia
     direction -0.34202 -0.939693 0   
     length 7.70628   
     axis 0 0 -20   XYZ
    dof rx
    limits (-10.0 170.0)
 end
 begin
     id 9 
     name rfoot
     direction -0.0696237 -0.19129 0.979061   
     length 2.52466  
     axis -90 -7.62852e-016 -20   XYZ
    dof rx rz
    limits (-45.0 90.0)
           (-20.0 70.0)
  end
  begin
     id 10 
     name rtoes
     direction -1.53519e-011 -4.21793e-011 1   
     length 1.266   
     axis -90 -7.62852e-016 -20   XYZ
    dof rx
    limits (-90.0 20.0)
  end
  begin
     id 11 
     name lowerback
     direction 0.00381965 0.995707 -0.0924856   
     length 2.20825   
     axis 0 0 0   XYZ
    dof rx ry rz
    limits (-20.0 45.0)
           (-30.0 30.0)
           (-30.0 30.0)
  end
  begin
     id 12 
     name upperback
     direction -0.0139043 0.999634 -0.0231929   
     length 2.21517   
     axis 0 0 0   XYZ
    dof rx ry rz
    limits (-20.0 45.0)
           (-30.0 30.0)
           (-30.0 30.0)
  end
  begin
     id 13 
     name thorax
     direction -0.0143933 0.999691 0.0202892   
     length 2.22911   
     axis 0 0 0   XYZ
    dof rx ry rz
    limits (-20.0 45.0)
           (-30.0 30.0)
           (-30.0 30.0)
  end
  begin
     id 14 
     name lowerneck
     direction -0.0251153 0.981819 0.188153   
     length 1.61782   
     axis 0 0 0   XYZ
    dof rx ry rz
    limits (-20.0 45.0)
           (-30.0 30.0)
           (-30.0 30.0)
  end
  begin
     id 15 
     name upperneck
     direction 0.0563891 0.969357 -0.239095   
     length 1.64526   
     axis 0 0 0   XYZ
    dof rx ry rz
    limits (-20.0 45.0)
           (-30.0 30.0)
           (-30.0 30.0)
  end
  begin
     id 16
     name head
     direction 0.0208328 0.99459 -0.101773  
     length 1.67436  
     axis 0 0 0   XYZ
    dof rx ry rz
    limits (-20.0 45.0)
           (-30.0 30.0)
           (-30.0 30.0)
  end
  begin
     id 17 
     name lclavicle
     direction 0.917689 0.397224 0.00772059  
     length 3.31102  
     axis 0 0 0   XYZ
    dof ry rz
    limits (-20.0 10.0)
           (0.0 20.0)
  end
  begin
     id 18 
     name lhumerus
     direction 1 -4.4896e-011 2.32308e-027   
     length 5.25537   
     axis 180 -30 -90   XYZ
    dof rx ry rz
    limits (-60.0 90.0)
           (-90.0 90.0)
           (-90.0 90.0)
  end
  begin
     id 19
     name lradius
     direction 1 -4.49005e-011 -2.04271e-027   
     length 3.38855   
     axis 180 -30 -90   XYZ
    dof rx
    limits (-10.0 170.0)
  end
  begin
     id 20
     name lwrist
     direction 1 -4.48892e-011 2.56952e-028   
     length 1.69428   
     axis -5.12785e-016 90 90   XYZ
    dof ry
    limits (-180.0 0.0)
 end
  begin
     id 21 
     name lhand
     direction 1 -4.48966e-011 5.13905e-028   
     length 0.614516   
     axis -3.27915e-016 90 90   XYZ
    dof rx rz
    limits (-90.0 90.0)
           (-45.0 45.0)
  end
  begin
     id 22 
     name lfingers
     direction 1 -4.48979e-011 1.02781e-027   
     length 0.495439   
     axis -6.5583e-016 90 90   XYZ
    dof rx
    limits (0.0 90.0)
  end
  begin
     id 23
     name lthumb
     direction 0.707107 -6.35001e-011 0.707107   
     length 0.711354   
     axis -90 45 2.85299e-015   XYZ
    dof rx rz
    limits (-45.0 45.0)
           (-45.0 45.0)
  end
  begin
     id 24 
     name rclavicle
     direction -0.938556 0.342765 -0.0403177   
     length 3.27019  
     axis 0 0 0   XYZ 
    dof ry rz
    limits (-10.0 20.0)
           (-20.0 0.0)
  end
  begin
     id 25 
     name rhumerus
     direction -1 -4.48966e-011 2.52291e-027  
     length 5.38183   
     axis 180 30 90   XYZ
    dof rx ry rz
    limits (-90.0 60.0)
           (-90.0 90.0)
           (-90.0 90.0)
  end
  begin
     id 26 
     name rradius
     direction -1 -4.4896e-011 1.5797e-027   
     length 3.16988   
     axis 180 30 90   XYZ
    dof rx
    limits (-10.0 170.0)
  end
  begin
     id 27 
     name rwrist
     direction -1 -4.48947e-011 2.56952e-028   
     length 1.58494   
     axis -5.12785e-016 -90 -90   XYZ
    dof ry
    limits (-180.0 0.0)
  end
  begin
     id 28
     name rhand
     direction -1 -4.49098e-011 5.13905e-028   
     length 0.637679   
     axis -3.27915e-016 -90 -90   XYZ
    dof rx rz
    limits (-90.0 90.0)
           (-45.0 45.0)
  end
  begin
     id 29
     name rfingers
     direction -1 -4.49026e-011 1.02781e-027   
     length 0.514113   
     axis -6.5583e-016 -90 -90   XYZ
    dof rx
    limits (0.0 90.0)
  end
  begin
     id 30
     name rthumb
     direction -0.707107 -6.3491e-011 0.707107   
     length 0.738167   
     axis -90 -45 -2.85299e-015   XYZ
    dof rx rz
    limits (-45.0 45.0)
           (-45.0 45.0)
  end
:hierarchy
  begin
    root lhipjoint rhipjoint lowerback
    lhipjoint lfemur
    lfemur ltibia
    ltibia lfoot
    lfoot ltoes
    rhipjoint rfemur
    rfemur rtibia
    rtibia rfoot
    rfoot rtoes
    lowerback upperback
    upperback thorax
    thorax lowerneck lclavicle rclavicle
    lowerneck upperneck
    upperneck head
    lclavicle lhumerus
    lhumerus lradius
    lradius lwrist
    lwrist lhand lthumb
    lhand lfingers
    rclavicle rhumerus
    rhumerus rradius
    rradius rwrist
    rwrist rhand rthumb
    rhand rfingers
  end

#!OML:ASF H:\Swim\Project 1\Capture day 1\Session 1\swimmer.ASF
:FULLY-SPECIFIED
:DEGREES
1340
root 4.46598 11.4765 24.8134 101.151 -5.27059 -1.02413
lowerback 2.05657 0.934952 -4.73237
upperback -11.7872 0.810574 -0.64268
thorax -14.1155 0.901646 1.80473
lowerneck -23.4981 -6.04688 -9.79217
upperneck 15.9027 -6.59298 7.50188
head 9.44886 -2.84047 3.21287
rclavicle 3.57812e-015 1.91827e-014
rhumerus 26.1933 6.19318 -47.1573
rradius 61.4182
rwrist -8.89582
rhand -24.7131 10.1013
rfingers 7.12502
rthumb 1.78864 -19.871
lclavicle 3.57812e-015 1.91827e-014
lhumerus 25.4772 -2.26241 58.5187
lradius 67.7091
lwrist 0.588481
lhand -20.3052 7.45551
lfingers 7.12502
lthumb 6.04521 -322.651
rfemur -21.9355 1.85003 18.6568
rtibia 30.2807
rfoot -4.84082 -10.2944
rtoes -1.46245
lfemur -25.6681 -5.06344 -14.7014
ltibia 30.9775
lfoot 1.55065 7.97686
ltoes -4.01898
1341
root 4.46702 11.4765 24.8069 101.137 -5.23024 -0.998967
lowerback 1.98929 0.928296 -4.62376
upperback -11.7835 0.812786 -0.665092
thorax -14.0633 0.887631 1.72053
lowerneck -23.582 -6.0392 -9.82509
upperneck 16.0055 -6.59134 7.60521
head 9.50463 -2.82804 3.25501
rclavicle 2.14687e-014 -1.03368e-014
rhumerus 27.3794 5.9414 -46.627
rradius 61.4233
rwrist -8.48733
rhand -24.2702 10.229
rfingers 7.12502
rthumb 2.21637 -19.7393
lclavicle 2.14687e-014 -1.03368e-014
lhumerus 26.7286 -2.32472 57.7104
lradius 67.7354
lwrist -0.228581
lhand -19.8529 6.76219
lfingers 7.12502
lthumb 6.48182 -323.357
rfemur -21.9339 1.84819 18.7694
rtibia 30.2735
rfoot -4.83066 -10.2542
rtoes -1.53737
lfemur -25.7061 -5.00807 -14.7228
ltibia 31.0616
lfoot 1.53383 7.82354
ltoes -4.13627
1342
root 4.46791 11.4764 24.801 101.132 -5.18949 -0.978677
lowerback 1.91377 0.920838 -4.51364
upperback -11.777 0.814323 -0.68776
thorax -14.0025 0.872971 1.63554
lowerneck -23.6864 -6.02558 -9.84741
upperneck 16.1082 -6.5792 7.69016
head 9.56188 -2.81166 3.29052
rclavicle 1.23246e-014 2.5842e-015
rhumerus 28.5981 5.67664 -46.0896
rradius 61.3993
rwrist -8.07296
rhand -23.8406 10.327
rfingers 7.12502
rthumb 2.63126 -19.6366
lclavicle 1.23246e-014 2.5842e-015
lhumerus 28.0117 -2.36193 56.8716
lradius 67.7293
lwrist -1.01896
lhand -19.4205 6.02304
lfingers 7.12502
lthumb 6.89929 -324.109
rfemur -21.9458 1.84822 18.8807
rtibia 30.2695
rfoot -4.82229 -10.2205
rtoes -1.58177
lfemur -25.7497 -4.94028 -14.7438
ltibia 31.1407
lfoot 1.51273 7.68306
ltoes -4.22991
1343
root 4.46867 11.4761 24.796 101.133 -5.15157 -0.963819
lowerback 1.83252 0.912767 -4.40774
upperback -11.766 0.814535 -0.712884
thorax -13.9327 0.857825 1.5506
lowerneck -23.8138 -6.00887 -9.86086
upperneck 16.2175 -6.5649 7.77856
head 9.62506 -2.79278 3.32615
rclavicle 2.78299e-015 -4.37326e-015
rhumerus 29.8458 5.39132 -45.5593
rradius 61.3519
rwrist -7.65381
rhand -23.4086 10.3811
rfingers 7.12502
rthumb 3.04854 -19.5768
lclavicle 2.78299e-015 -4.37326e-015
lhumerus 29.3279 -2.36814 55.9994
lradius 67.6955
lwrist -1.7269
lhand -18.976 5.2494
lfingers 7.12502
lthumb 7.3283 -324.898
rfemur -21.9706 1.8485 18.9865
rtibia 30.2735
rfoot -4.82024 -10.1877
rtoes -1.62251
lfemur -25.7938 -4.86061 -14.7684
ltibia 31.2104
lfoot 1.49386 7.56045
ltoes -4.31004
1344
root 4.46937 11.4757 24.7918 101.137 -5.12553 -0.956546
lowerback 1.74923 0.9079 -4.3246
upperback -11.753 0.817006 -0.739998
thorax -13.8603 0.846295 1.47589
lowerneck -23.9648 -5.99288 -9.86196
upperneck 16.3393 -6.55345 7.86276
head 9.69658 -2.77426 3.35788
rclavicle 3.57812e-015 -7.95139e-015
rhumerus 31.1074 5.09237 -45.0334
rradius 61.2858
rwrist -7.26531
rhand -22.9829 10.3909
rfingers 7.12502
rthumb 3.45963 -19.5607
lclavicle 3.57812e-015 -7.95139e-015
lhumerus 30.671 -2.34868 55.1102
lradius 67.6374
lwrist -2.34979
lhand -18.4973 4.46723
lfingers 7.12502
lthumb 7.79033 -325.696
rfemur -22.0071 1.84076 19.0768
rtibia 30.2894
rfoot -4.81232 -10.148
rtoes -1.6802
lfemur -25.8322 -4.77787 -14.8057
ltibia 31.2673
lfoot 1.47336 7.46486
ltoes -4.34087
1345
root 4.47003 11.4752 24.7885 101.146 -5.11109 -0.956775
lowerback 1.66169 0.909087 -4.26934
upperback -11.741 0.82537 -0.770396
thorax -13.7879 0.840774 1.41229
lowerneck -24.1236 -5.97533 -9.8358
upperneck 16.4663 -6.54404 7.92488
head 9.7697 -2.75718 3.37712
rclavicle -7.95139e-015 3.8763e-015
rhumerus 32.373 4.78272 -44.493
rradius 61.196
rwrist -6.96106
rhand -22.5758 10.3755
rfingers 7.12502
rthumb 3.85271 -19.5695
lclavicle -7.95139e-015 3.8763e-015
lhumerus 32.0385 -2.31999 54.2109
lradius 67.5495
lwrist -2.87219
lhand -18.0063 3.6931
lfingers 7.12502
lthumb 8.2643 -326.489
rfemur -22.0575 1.80614 19.1531
rtibia 30.3177
rfoot -4.78458 -10.0832
rtoes -1.75786
lfemur -25.8665 -4.68958 -14.8558
ltibia 31.3109
lfoot 1.46149 7.39283
ltoes -4.31207
1346
root 4.47071 11.4749 24.7862 101.158 -5.10772 -0.964252
lowerback 1.57148 0.920986 -4.24969
upperback -11.7362 0.846146 -0.798553
thorax -13.7249 0.846004 1.36911
lowerneck -24.2672 -5.96887 -9.81655
upperneck 16.6042 -6.55024 7.98904
head 9.84608 -2.7477 3.39606
rclavicle -1.59028e-015 1.0635e-014
rhumerus 33.6206 4.4711 -43.9225
rradius 61.0829
rwrist -6.78038
rhand -22.1944 10.3626
rfingers 7.12502
rthumb 4.22109 -19.5754
lclavicle -1.59028e-015 1.0635e-014
lhumerus 33.4215 -2.2996 53.3213
lradius 67.4248
lwrist -3.30088
lhand -17.519 2.96269
lfingers 7.12502
lthumb 8.73453 -327.238
rfemur -22.1199 1.75201 19.2141
rtibia 30.3567
rfoot -4.73867 -9.99783
rtoes -1.85754
lfemur -25.8967 -4.60172 -14.9173
ltibia 31.3424
lfoot 1.45358 7.34872
ltoes -4.25465
1347
root 4.4715 11.4747 24.7849 101.173 -5.10526 -0.975485
lowerback 1.47973 0.941076 -4.24992
upperback -11.7383 0.877155 -0.824438
thorax -13.6708 0.859065 1.33798
lowerneck -24.3911 -5.96837 -9.79017
upperneck 16.7492 -6.56656 8.03982
head 9.92201 -2.74424 3.40776
rclavicle 4.37326e-015 -2.5842e-015
rhumerus 34.8503 4.16917 -43.3245
rradius 60.9249
rwrist -6.71795
rhand -21.8772 10.3981
rfingers 7.12502
rthumb 4.52738 -19.5335
lclavicle 4.37326e-015 -2.5842e-015
lhumerus 34.8182 -2.28917 52.4353
lradius 67.2541
lwrist -3.65889
lhand -17.0409 2.29953
lfingers 7.12502
lthumb 9.19588 -327.921
rfemur -22.1889 1.68853 19.2696
rtibia 30.4012
rfoot -4.68117 -9.89893
rtoes -1.96215
lfemur -25.9243 -4.51379 -14.9784
ltibia 31.3662
lfoot 1.44631 7.32543
ltoes -4.18989
1348
root 4.4724 11.4748 24.7845 101.194 -5.09412 -0.98855
lowerback 1.38378 0.970242 -4.26022
upperback -11.7523 0.921223 -0.842777
thorax -13.6298 0.880771 1.31883
lowerneck -24.4787 -5.97507 -9.76612
upperneck 16.8956 -6.59159 8.07286
head 9.99252 -2.7477 3.41244
rclavicle 3.57812e-014 -3.97569e-015
rhumerus 36.0537 3.87595 -42.6948
rradius 60.7234
rwrist -6.75888
rhand -21.6004 10.4765
rfingers 7.12502
rthumb 4.7946 -19.4492
lclavicle 3.57812e-014 -3.97569e-015
lhumerus 36.2231 -2.2991 51.5587
lradius 67.0294
lwrist -3.94264
lhand -16.5966 1.73304
lfingers 7.12502
lthumb 9.62457 -328.507
rfemur -22.2662 1.63004 19.3284
rtibia 30.4455
rfoot -4.61402 -9.79948
rtoes -2.03592
lfemur -25.958 -4.4289 -15.0269
ltibia 31.3867
lfoot 1.44514 7.31914
ltoes -4.09694
1349
root 4.47341 11.4754 24.7851 101.22 -5.07033 -1.0038
lowerback 1.28329 1.0019 -4.26708
upperback -11.7727 0.96994 -0.855763
thorax -13.5941 0.905017 1.30308
lowerneck -24.551 -5.98088 -9.72407
upperneck 17.0469 -6.61692 8.07729
head 10.0605 -2.75369 3.40403
rclavicle 1.94809e-014 -8.64713e-015
rhumerus 37.2458 3.58834 -42.0656
rradius 60.4747
rwrist -6.85945
rhand -21.3584 10.5936
rfingers 7.12502
rthumb 5.02826 -19.3268
lclavicle 1.94809e-014 -8.64713e-015
lhumerus 37.6366 -2.31425 50.6697
lradius 66.749
lwrist -4.15996
lhand -16.1961 1.28279
lfingers 7.12502
lthumb 10.0109 -328.975
rfemur -22.3483 1.58201 19.3938
rtibia 30.4843
rfoot -4.54079 -9.70433
rtoes -2.09246
lfemur -25.9994 -4.34751 -15.0574
ltibia 31.4081
lfoot 1.44493 7.32282
ltoes -3.9995
1350
root 4.47446 11.4763 24.7865 101.248 -5.03353 -1.02083
lowerback 1.1829 1.03492 -4.26732
upperback -11.7982 1.02172 -0.863331
thorax -13.5647 0.930644 1.28918
lowerneck -24.6084 -5.98473 -9.66438
upperneck 17.202 -6.63919 8.04652
head 10.1249 -2.76147 3.38072
rclavicle -2.38542e-015 -3.37934e-015
rhumerus 38.429 3.30467 -41.4402
rradius 60.1748
rwrist -6.9828
rhand -21.1381 10.7323
rfingers 7.12502
rthumb 5.24099 -19.1828
lclavicle -2.38542e-015 -3.37934e-015
lhumerus 39.054 -2.32973 49.7711
lradius 66.4097
lwrist -4.34123
lhand -15.8456 0.943462
lfingers 7.12502
lthumb 10.3491 -329.331
rfemur -22.4291 1.54591 19.466
rtibia 30.515
rfoot -4.46258 -9.61534
rtoes -2.13163
lfemur -26.0449 -4.27505 -15.0681
ltibia 31.4317
lfoot 1.44387 7.33421
ltoes -3.90471
1351
root 4.47554 11.4774 24.7889 101.276 -4.98961 -1.03791
lowerback 1.08162 1.06901 -4.26309
upperback -11.8269 1.07565 -0.868667
thorax -13.5386 0.95713 1.27504
lowerneck -24.649 -5.99219 -9.60145
upperneck 17.3605 -6.6656 7.99989
head 10.1874 -2.77309 3.35059
rclavicle -7.55382e-015 9.14409e-015
rhumerus 39.6031 3.01641 -40.816
rradius 59.8206
rwrist -7.11005
rhand -20.9161 10.8929
rfingers 7.12502
rthumb 5.45537 -19.0168
lclavicle -7.55382e-015 9.14409e-015
lhumerus 40.4757 -2.33664 48.8751
lradius 66.0102
lwrist -4.52251
lhand -15.5102 0.688033
lfingers 7.12502
lthumb 10.6727 -329.603
rfemur -22.5058 1.51271 19.5392
rtibia 30.5371
rfoot -4.38048 -9.52773
rtoes -2.15485
lfemur -26.0927 -4.21716 -15.0648
ltibia 31.4568
lfoot 1.44229 7.34887
ltoes -3.83082
1352
root 4.47662 11.4787 24.792 101.299 -4.94365 -1.05319
lowerback 0.981735 1.10278 -4.26007
upperback -11.8542 1.12916 -0.872764
thorax -13.5116 0.983628 1.26313
lowerneck -24.6945 -6.00965 -9.54706
upperneck 17.5334 -6.70215 7.94941
head 10.2572 -2.79018 3.31878
rclavicle -2.18663e-014 -1.23246e-014
rhumerus 40.7705 2.72164 -40.1889
rradius 59.416
rwrist -7.2357
rhand -20.6844 11.0467
rfingers 7.12502
rthumb 5.67905 -18.8572
lclavicle -2.18663e-014 -1.23246e-014
lhumerus 41.9033 -2.32785 47.9839
lradius 65.5503
lwrist -4.71334
lhand -15.1942 0.492308
lfingers 7.12502
lthumb 10.9774 -329.815
rfemur -22.5746 1.47578 19.6082
rtibia 30.5521
rfoot -4.29533 -9.43886
rtoes -2.19308
lfemur -26.1375 -4.18009 -15.0523
ltibia 31.481
lfoot 1.43907 7.3661
ltoes -3.74725
1353
root 4.47764 11.48 24.796 101.319 -4.89855 -1.06444
lowerback 0.881091 1.13548 -4.26063
upperback -11.8794 1.18076 -0.878505
thorax -13.4819 1.00943 1.25184
lowerneck -24.7425 -6.03356 -9.49107
upperneck 17.714 -6.74518 7.88601
head 10.3303 -2.81152 3.28086
rclavicle -1.86858e-014 3.8763e-015
rhumerus 41.9263 2.41816 -39.5625
rradius 58.9645
rwrist -7.35097
rhand -20.4276 11.1758
rfingers 7.12502
rthumb 5.92698 -18.7213
lclavicle -1.86858e-014 3.8763e-015
lhumerus 43.3342 -2.30213 47.1057
lradius 65.0333
lwrist -4.93475
lhand -14.8646 0.333703
lfingers 7.12502
lthumb 11.2954 -329.99
rfemur -22.6355 1.43756 19.6693
rtibia 30.5619
rfoot -4.21496 -9.35372
rtoes -2.23155
lfemur -26.1784 -4.16216 -15.0342
ltibia 31.5016
lfoot 1.42948 7.38242
ltoes -3.70237
